<?xml version="1.0" encoding="utf-8"?>
<!-- Generator: Adobe Illustrator 25.0.0, SVG Export Plug-In . SVG Version: 6.00 Build 0)  -->
<svg version="1.1" id="Layer_1" xmlns="http://www.w3.org/2000/svg" xmlns:xlink="http://www.w3.org/1999/xlink" x="0px" y="0px"
	 viewBox="0 0 146.9 52.1" style="enable-background:new 0 0 146.9 52.1;" xml:space="preserve">
<style type="text/css">
	.st0{enable-background:new    ;}
	.st1{fill:#2196F3;}
	.st2{fill:#1976D2;}
	.st3{fill:#1E88E5;}
	.st4{fill:#42A5F5;}
	.st5{fill:#64B5F6;}
	.st6{fill:#F44336;}
</style>
<g transform="translate(491.826 -1776.829)">
	<g class="st0">
		<path class="st1" d="M-441.4,1791.6h2.8l7.8,18.8h-3.8l-1.9-4.9h-6.9l-1.9,4.9h-3.8L-441.4,1791.6z M-437.8,1802.2l-2.1-5.5
			l-2.1,5.5H-437.8z"/>
		<path class="st1" d="M-428.8,1791.6h5.2c8.6,0,10.1,5.8,10.1,9.5c0,2-0.5,9.3-10,9.3h-5.3V1791.6z M-423.6,1807.1
			c1.9,0,6.6-0.2,6.6-5.9c0-5.9-4.9-6.1-6.8-6.1h-1.5v12H-423.6z"/>
		<path class="st1" d="M-411,1791.6h5.4c6.3,0,7.1,4.2,7.1,6c0,3-2,5.6-5.1,5.9l5.3,6.9h-4.3l-4.9-6.9h-0.1v6.9h-3.5V1791.6z
			 M-407.5,1800.6h2.1c0.8,0,3.5-0.1,3.5-2.8c0-2.7-2.7-2.8-3.5-2.8h-2.1V1800.6z"/>
		<path class="st1" d="M-377.4,1801.2c0,5.4-4.3,9.8-9.9,9.8c-5.6,0-9.9-4.3-9.9-9.8c0-5.4,4.3-9.8,9.9-9.8
			S-377.4,1795.7-377.4,1801.2z M-380.9,1801.1c0-3.5-2.7-6.4-6.4-6.4c-3.7,0-6.4,2.9-6.4,6.4c0,3.6,2.8,6.5,6.4,6.5
			C-383.6,1807.5-380.9,1804.6-380.9,1801.1z"/>
	</g>
	<g>
		<rect x="-464" y="1776.8" class="st2" width="4.7" height="40.2"/>
	</g>
	<g>
		<rect x="-471" y="1795.3" class="st3" width="4.7" height="33.7"/>
	</g>
	<g>
		<rect x="-477.9" y="1792.8" class="st1" width="4.7" height="24.2"/>
	</g>
	<g>
		<rect x="-484.9" y="1786" class="st4" width="4.7" height="18.5"/>
	</g>
	<g>
		<rect x="-491.8" y="1798.2" class="st5" width="4.7" height="12.6"/>
	</g>
	<g transform="translate(-715.995 1287.138)">
		<g>
			<path class="st6" d="M343.4,504.5h9.6v3.4h-6.1v4.3h5.8v3.4h-5.8v7.7h-3.5V504.5z"/>
		</g>
		<g>
			<path class="st6" d="M360.5,513.9l-6.5-9.4h4.1l4.5,6.5l4.5-6.5h4.1l-6.5,9.4l6.5,9.4H367l-4.5-6.5l-4.5,6.5H354L360.5,513.9z"/>
		</g>
	</g>
</g>
</svg>
